<svg width="3466" height="288" viewBox="0 0 3466 288" fill="none" xmlns="http://www.w3.org/2000/svg">
<path d="M65.6 288C44.2667 288 28.1333 282 17.2 270C6.26667 257.733 0.800001 240.267 0.800001 217.6V201.6H42.4V220.8C42.4 238.933 50 248 65.2 248C72.6667 248 78.2667 245.867 82 241.6C86 237.067 88 229.867 88 220C88 208.267 85.3333 198 80 189.2C74.6667 180.133 64.8 169.333 50.4 156.8C32.2667 140.8 19.6 126.4 12.4 113.6C5.2 100.533 1.6 85.8667 1.6 69.6C1.6 47.4667 7.2 30.4 18.4 18.4C29.6 6.13332 45.8667 -1.52588e-05 67.2 -1.52588e-05C88.2667 -1.52588e-05 104.133 6.13332 114.8 18.4C125.733 30.4 131.2 47.7333 131.2 70.4V82H89.6V67.6C89.6 58 87.7333 51.0667 84 46.8C80.2667 42.2667 74.8 40 67.6 40C52.9333 40 45.6 48.9333 45.6 66.8C45.6 76.9333 48.2667 86.4 53.6 95.2C59.2 104 69.2 114.667 83.6 127.2C102 143.2 114.667 157.733 121.6 170.8C128.533 183.867 132 199.2 132 216.8C132 239.733 126.267 257.333 114.8 269.6C103.6 281.867 87.2 288 65.6 288ZM190.056 3.99998H249.656L295.256 284H251.256L243.256 228.4V229.2H193.256L185.256 284H144.456L190.056 3.99998ZM238.056 191.2L218.456 52.8H217.656L198.456 191.2H238.056ZM316.603 3.99998H381.403C403.27 3.99998 419.67 9.86665 430.603 21.6C441.536 33.3333 447.003 50.5333 447.003 73.2V100.8C447.003 123.467 441.536 140.667 430.603 152.4C419.67 164.133 403.27 170 381.403 170H360.603V284H316.603V3.99998ZM381.403 130C388.603 130 393.936 128 397.403 124C401.136 120 403.003 113.2 403.003 103.6V70.4C403.003 60.8 401.136 54 397.403 50C393.936 46 388.603 44 381.403 44H360.603V130H381.403ZM470.9 3.99998H535.7C557.567 3.99998 573.967 9.86665 584.9 21.6C595.833 33.3333 601.3 50.5333 601.3 73.2V100.8C601.3 123.467 595.833 140.667 584.9 152.4C573.967 164.133 557.567 170 535.7 170H514.9V284H470.9V3.99998ZM535.7 130C542.9 130 548.233 128 551.7 124C555.433 120 557.3 113.2 557.3 103.6V70.4C557.3 60.8 555.433 54 551.7 50C548.233 46 542.9 44 535.7 44H514.9V130H535.7ZM625.197 3.99998H669.197V118H716.397V3.99998H760.397V284H716.397V158H669.197V284H625.197V3.99998ZM793.166 3.99998H837.166V284H793.166V3.99998ZM932.119 288C911.052 288 894.919 282 883.719 270C872.785 258 867.319 241.067 867.319 219.2V68.8C867.319 46.9333 872.785 30 883.719 18C894.919 5.99999 911.052 -1.52588e-05 932.119 -1.52588e-05C953.185 -1.52588e-05 969.185 5.99999 980.119 18C991.319 30 996.919 46.9333 996.919 68.8V98.4H955.319V66C955.319 48.6667 947.985 40 933.319 40C918.652 40 911.319 48.6667 911.319 66V222.4C911.319 239.467 918.652 248 933.319 248C947.985 248 955.319 239.467 955.319 222.4V179.6H996.919V219.2C996.919 241.067 991.319 258 980.119 270C969.185 282 953.185 288 932.119 288ZM1087.31 3.99998H1131.31V244H1203.71V284H1087.31V3.99998ZM1286.84 288C1265.24 288 1248.71 281.867 1237.24 269.6C1225.78 257.333 1220.04 240 1220.04 217.6V70.4C1220.04 48 1225.78 30.6667 1237.24 18.4C1248.71 6.13332 1265.24 -1.52588e-05 1286.84 -1.52588e-05C1308.44 -1.52588e-05 1324.98 6.13332 1336.44 18.4C1347.91 30.6667 1353.64 48 1353.64 70.4V217.6C1353.64 240 1347.91 257.333 1336.44 269.6C1324.98 281.867 1308.44 288 1286.84 288ZM1286.84 248C1302.04 248 1309.64 238.8 1309.64 220.4V67.6C1309.64 49.2 1302.04 40 1286.84 40C1271.64 40 1264.04 49.2 1264.04 67.6V220.4C1264.04 238.8 1271.64 248 1286.84 248ZM1383.4 3.99998H1438.6L1481.4 171.6H1482.2V3.99998H1521.4V284H1476.2L1423.4 79.6H1422.6V284H1383.4V3.99998ZM1616.5 288C1595.17 288 1578.9 282 1567.7 270C1556.5 257.733 1550.9 240.267 1550.9 217.6V70.4C1550.9 47.7333 1556.5 30.4 1567.7 18.4C1578.9 6.13332 1595.17 -1.52588e-05 1616.5 -1.52588e-05C1637.84 -1.52588e-05 1654.1 6.13332 1665.3 18.4C1676.5 30.4 1682.1 47.7333 1682.1 70.4V94.4H1640.5V67.6C1640.5 49.2 1632.9 40 1617.7 40C1602.5 40 1594.9 49.2 1594.9 67.6V220.8C1594.9 238.933 1602.5 248 1617.7 248C1632.9 248 1640.5 238.933 1640.5 220.8V166H1618.5V126H1682.1V217.6C1682.1 240.267 1676.5 257.733 1665.3 270C1654.1 282 1637.84 288 1616.5 288ZM1710.35 3.99998H1754.35V284H1710.35V3.99998ZM1787.31 3.99998H1842.51L1885.31 171.6H1886.11V3.99998H1925.31V284H1880.11L1827.31 79.6H1826.51V284H1787.31V3.99998ZM2020.41 288C1999.08 288 1982.81 282 1971.61 270C1960.41 257.733 1954.81 240.267 1954.81 217.6V70.4C1954.81 47.7333 1960.41 30.4 1971.61 18.4C1982.81 6.13332 1999.08 -1.52588e-05 2020.41 -1.52588e-05C2041.74 -1.52588e-05 2058.01 6.13332 2069.21 18.4C2080.41 30.4 2086.01 47.7333 2086.01 70.4V94.4H2044.41V67.6C2044.41 49.2 2036.81 40 2021.61 40C2006.41 40 1998.81 49.2 1998.81 67.6V220.8C1998.81 238.933 2006.41 248 2021.61 248C2036.81 248 2044.41 238.933 2044.41 220.8V166H2022.41V126H2086.01V217.6C2086.01 240.267 2080.41 257.733 2069.21 270C2058.01 282 2041.74 288 2020.41 288ZM2241.92 288C2220.32 288 2203.79 281.867 2192.32 269.6C2180.86 257.333 2175.12 240 2175.12 217.6V70.4C2175.12 48 2180.86 30.6667 2192.32 18.4C2203.79 6.13332 2220.32 -1.52588e-05 2241.92 -1.52588e-05C2263.52 -1.52588e-05 2280.06 6.13332 2291.52 18.4C2302.99 30.6667 2308.72 48 2308.72 70.4V217.6C2308.72 240 2302.99 257.333 2291.52 269.6C2280.06 281.867 2263.52 288 2241.92 288ZM2241.92 248C2257.12 248 2264.72 238.8 2264.72 220.4V67.6C2264.72 49.2 2257.12 40 2241.92 40C2226.72 40 2219.12 49.2 2219.12 67.6V220.4C2219.12 238.8 2226.72 248 2241.92 248ZM2338.48 3.99998H2393.68L2436.48 171.6H2437.28V3.99998H2476.48V284H2431.28L2378.48 79.6H2377.68V284H2338.48V3.99998ZM2630.44 288C2609.11 288 2592.98 282 2582.04 270C2571.11 257.733 2565.64 240.267 2565.64 217.6V201.6H2607.24V220.8C2607.24 238.933 2614.84 248 2630.04 248C2637.51 248 2643.11 245.867 2646.84 241.6C2650.84 237.067 2652.84 229.867 2652.84 220C2652.84 208.267 2650.18 198 2644.84 189.2C2639.51 180.133 2629.64 169.333 2615.24 156.8C2597.11 140.8 2584.44 126.4 2577.24 113.6C2570.04 100.533 2566.44 85.8667 2566.44 69.6C2566.44 47.4667 2572.04 30.4 2583.24 18.4C2594.44 6.13332 2610.71 -1.52588e-05 2632.04 -1.52588e-05C2653.11 -1.52588e-05 2668.98 6.13332 2679.64 18.4C2690.58 30.4 2696.04 47.7333 2696.04 70.4V82H2654.44V67.6C2654.44 58 2652.58 51.0667 2648.84 46.8C2645.11 42.2667 2639.64 40 2632.44 40C2617.78 40 2610.44 48.9333 2610.44 66.8C2610.44 76.9333 2613.11 86.4 2618.44 95.2C2624.04 104 2634.04 114.667 2648.44 127.2C2666.84 143.2 2679.51 157.733 2686.44 170.8C2693.38 183.867 2696.84 199.2 2696.84 216.8C2696.84 239.733 2691.11 257.333 2679.64 269.6C2668.44 281.867 2652.04 288 2630.44 288ZM2784.07 288C2763.01 288 2746.87 282 2735.67 270C2724.74 258 2719.27 241.067 2719.27 219.2V68.8C2719.27 46.9333 2724.74 30 2735.67 18C2746.87 5.99999 2763.01 -1.52588e-05 2784.07 -1.52588e-05C2805.14 -1.52588e-05 2821.14 5.99999 2832.07 18C2843.27 30 2848.87 46.9333 2848.87 68.8V98.4H2807.27V66C2807.27 48.6667 2799.94 40 2785.27 40C2770.61 40 2763.27 48.6667 2763.27 66V222.4C2763.27 239.467 2770.61 248 2785.27 248C2799.94 248 2807.27 239.467 2807.27 222.4V179.6H2848.87V219.2C2848.87 241.067 2843.27 258 2832.07 270C2821.14 282 2805.14 288 2784.07 288ZM2875.2 3.99998H2940.4C2963.06 3.99998 2979.6 9.33332 2990 20C3000.4 30.4 3005.6 46.5333 3005.6 68.4V85.6C3005.6 114.667 2996 133.067 2976.8 140.8V141.6C2987.46 144.8 2994.93 151.333 2999.2 161.2C3003.73 171.067 3006 184.267 3006 200.8V250C3006 258 3006.26 264.533 3006.8 269.6C3007.33 274.4 3008.66 279.2 3010.8 284H2966C2964.4 279.467 2963.33 275.2 2962.8 271.2C2962.26 267.2 2962 260 2962 249.6V198.4C2962 185.6 2959.86 176.667 2955.6 171.6C2951.6 166.533 2944.53 164 2934.4 164H2919.2V284H2875.2V3.99998ZM2935.2 124C2944 124 2950.53 121.733 2954.8 117.2C2959.33 112.667 2961.6 105.067 2961.6 94.4V72.8C2961.6 62.6667 2959.73 55.3333 2956 50.8C2952.53 46.2667 2946.93 44 2939.2 44H2919.2V124H2935.2ZM3036.53 3.99998H3156.53V44H3080.53V118H3140.93V158H3080.53V244H3156.53V284H3036.53V3.99998ZM3181.84 3.99998H3301.84V44H3225.84V118H3286.24V158H3225.84V244H3301.84V284H3181.84V3.99998ZM3327.15 3.99998H3382.35L3425.15 171.6H3425.95V3.99998H3465.15V284H3419.95L3367.15 79.6H3366.35V284H3327.15V3.99998Z" fill="white"/>
</svg>
